<?xml version="1.0" encoding="iso-8859-1"?>
<!-- Generator: Adobe Illustrator 16.0.0, SVG Export Plug-In . SVG Version: 6.00 Build 0)  -->
<!DOCTYPE svg PUBLIC "-//W3C//DTD SVG 1.1//EN" "http://www.w3.org/Graphics/SVG/1.1/DTD/svg11.dtd">
<svg xmlns="http://www.w3.org/2000/svg" xmlns:xlink="http://www.w3.org/1999/xlink" version="1.1" id="Capa_1" x="0px" y="0px" width="512px" height="512px" viewBox="0 0 348.97 348.97" style="enable-background:new 0 0 348.97 348.97;" xml:space="preserve">
<g>
	<g>
		<path d="M21.764,215.667c-6.168,0.08-10.423,0.095-11.232,0.095C4.716,215.762,0,218.727,0,222.384v24.488    c0,3.658,4.716,6.623,10.532,6.623c0.81,0,5.064,0.013,11.232,0.095c0,0,2,0,2-2.033c0-8,0-25.032,0-33.375    C23.764,215.667,21.764,215.667,21.764,215.667z" fill="#FFFFFF"/>
		<path d="M302.066,185.139H153.33c-36.002,0-33.399,14.765-63.394,25.883c-6.104,2.263-10.923,4.067-43.173,4.067    c0,0-2-0.199-2,1.802c0,8.75,0,26.25,0,35c0,2.5,2,2.276,2,2.276c33,0,37.069,1.806,43.173,4.066    c29.994,11.119,27.392,25.885,63.394,25.885h148.734c49.535,0,47.043-14.92,46.82-49.489    C349.107,200.057,351.602,185.139,302.066,185.139z M253.764,262.858c0,3.851-3.15,7-7,7h-36.836c-3.85,0-7-3.149-7-7V206.4    c0-3.85,3.15-7,7-7h36.836c3.85,0,7,3.15,7,7V262.858z" fill="#FFFFFF"/>
		<path d="M21.764,95.379c-6.168,0.081-10.423,0.095-11.232,0.095C4.716,95.474,0,98.439,0,102.096v24.488    c0,3.658,4.716,6.623,10.532,6.623c0.81,0,5.064,0.013,11.232,0.095c0,0,2,0,2-2.033c0-8,0-25.032,0-33.375    C23.764,95.379,21.764,95.379,21.764,95.379z" fill="#FFFFFF"/>
		<path d="M302.066,64.851H153.33c-36.002,0-33.399,14.764-63.394,25.883c-6.104,2.262-10.923,4.067-43.173,4.067    c0,0-2-0.199-2,1.802c0,8.75,0,26.25,0,35c0,2.5,2,2.277,2,2.277c33,0,37.069,1.805,43.173,4.066    c29.994,11.119,27.392,25.884,63.394,25.884h148.734c49.535,0,47.043-14.919,46.82-49.489    C349.107,79.769,351.602,64.851,302.066,64.851z M253.764,142.57c0,3.85-3.15,7-7,7h-36.836c-3.85,0-7-3.15-7-7V86.112    c0-3.85,3.15-7,7-7h36.836c3.85,0,7,3.15,7,7V142.57z" fill="#FFFFFF"/>
	</g>
</g>
<g>
</g>
<g>
</g>
<g>
</g>
<g>
</g>
<g>
</g>
<g>
</g>
<g>
</g>
<g>
</g>
<g>
</g>
<g>
</g>
<g>
</g>
<g>
</g>
<g>
</g>
<g>
</g>
<g>
</g>
</svg>
